<mxfile host="65bd71144e">
    <diagram id="i04f0UKXvQoqquGLyLqS" name="Page-1">
        <mxGraphModel dx="1144" dy="680" grid="1" gridSize="10" guides="1" tooltips="1" connect="1" arrows="1" fold="1" page="1" pageScale="1" pageWidth="1169" pageHeight="827" math="0" shadow="0">
            <root>
                <mxCell id="0"/>
                <mxCell id="1" parent="0"/>
                <mxCell id="-EIdFgMRcUlDATralc_O-2" value="" style="rounded=0;whiteSpace=wrap;html=1;strokeColor=#000099;strokeWidth=3;fillColor=#A3D6EF;opacity=50;fontColor=#ffffff;" parent="1" vertex="1">
                    <mxGeometry x="330" y="30" width="800" height="390" as="geometry"/>
                </mxCell>
                <mxCell id="-EIdFgMRcUlDATralc_O-26" value="" style="rounded=0;whiteSpace=wrap;html=1;fontSize=10;fontColor=#007FFF;strokeColor=#006EDE;strokeWidth=3;fillColor=#8CC9FF;gradientColor=none;opacity=80;" parent="1" vertex="1">
                    <mxGeometry x="350" y="50" width="760" height="290" as="geometry"/>
                </mxCell>
                <mxCell id="Q5pbHpUIkdC_AKoqq48F-2" value="" style="shape=image;verticalLabelPosition=bottom;labelBackgroundColor=default;verticalAlign=top;aspect=fixed;imageAspect=0;image=https://cdn-icons-png.flaticon.com/512/919/919853.png;" parent="1" vertex="1">
                    <mxGeometry x="337" y="36" width="77.5" height="77.5" as="geometry"/>
                </mxCell>
                <mxCell id="-EIdFgMRcUlDATralc_O-29" value="" style="rounded=0;whiteSpace=wrap;html=1;fontSize=10;fontColor=#000000;strokeColor=#153550;strokeWidth=3;fillColor=#007FFF;gradientColor=none;opacity=70;" parent="1" vertex="1">
                    <mxGeometry x="380" y="70" width="210" height="70" as="geometry"/>
                </mxCell>
                <mxCell id="Q5pbHpUIkdC_AKoqq48F-1" value="" style="rounded=0;whiteSpace=wrap;html=1;labelBackgroundColor=none;fontSize=13;fontColor=#007FFF;strokeColor=none;strokeWidth=2;fillColor=#FFFFFF;gradientColor=none;" parent="1" vertex="1">
                    <mxGeometry x="708" y="632.5" width="45" height="62.5" as="geometry"/>
                </mxCell>
                <mxCell id="-EIdFgMRcUlDATralc_O-3" value="&lt;font color=&quot;#ffffff&quot;&gt;&lt;b&gt;BUG Host&amp;nbsp;&lt;br&gt;&lt;/b&gt;192.168.0.1&lt;/font&gt;" style="text;html=1;strokeColor=none;fillColor=none;align=center;verticalAlign=middle;whiteSpace=wrap;rounded=0;" parent="1" vertex="1">
                    <mxGeometry x="665" y="430" width="130" height="30" as="geometry"/>
                </mxCell>
                <mxCell id="-EIdFgMRcUlDATralc_O-4" value="" style="fontColor=#0066CC;verticalAlign=top;verticalLabelPosition=bottom;labelPosition=center;align=center;html=1;outlineConnect=0;fillColor=#153550;strokeColor=#2D71AB;gradientColor=none;gradientDirection=north;strokeWidth=2;shape=mxgraph.networks.terminal;" parent="1" vertex="1">
                    <mxGeometry x="410" y="600" width="130" height="125" as="geometry"/>
                </mxCell>
                <mxCell id="-EIdFgMRcUlDATralc_O-5" value="" style="verticalLabelPosition=bottom;html=1;verticalAlign=top;align=center;strokeColor=none;fillColor=#153550;shape=mxgraph.azure.mobile;pointerEvents=1;fontColor=#000000;" parent="1" vertex="1">
                    <mxGeometry x="705" y="627.5" width="50" height="70" as="geometry"/>
                </mxCell>
                <mxCell id="-EIdFgMRcUlDATralc_O-8" style="edgeStyle=orthogonalEdgeStyle;rounded=0;orthogonalLoop=1;jettySize=auto;html=1;entryX=0.5;entryY=1;entryDx=0;entryDy=0;endArrow=none;endFill=0;strokeColor=#2D71AB;strokeWidth=3;" parent="1" source="-EIdFgMRcUlDATralc_O-7" target="-EIdFgMRcUlDATralc_O-3" edge="1">
                    <mxGeometry relative="1" as="geometry"/>
                </mxCell>
                <mxCell id="-EIdFgMRcUlDATralc_O-10" style="rounded=0;orthogonalLoop=1;jettySize=auto;html=1;exitX=0;exitY=0.5;exitDx=0;exitDy=0;entryX=0.5;entryY=0;entryDx=0;entryDy=0;entryPerimeter=0;endArrow=none;endFill=0;strokeColor=#2D71AB;strokeWidth=3;" parent="1" source="-EIdFgMRcUlDATralc_O-7" target="-EIdFgMRcUlDATralc_O-4" edge="1">
                    <mxGeometry relative="1" as="geometry"/>
                </mxCell>
                <mxCell id="-EIdFgMRcUlDATralc_O-11" value="" style="rounded=0;orthogonalLoop=1;jettySize=auto;html=1;entryX=0.5;entryY=0;entryDx=0;entryDy=0;entryPerimeter=0;endArrow=none;endFill=0;strokeColor=#2D71AB;strokeWidth=3;" parent="1" source="-EIdFgMRcUlDATralc_O-7" target="-EIdFgMRcUlDATralc_O-5" edge="1">
                    <mxGeometry relative="1" as="geometry"/>
                </mxCell>
                <mxCell id="-EIdFgMRcUlDATralc_O-13" style="edgeStyle=none;rounded=0;orthogonalLoop=1;jettySize=auto;html=1;entryX=0.5;entryY=0;entryDx=0;entryDy=0;entryPerimeter=0;endArrow=none;endFill=0;strokeColor=#2D71AB;strokeWidth=3;" parent="1" source="-EIdFgMRcUlDATralc_O-7" target="-EIdFgMRcUlDATralc_O-12" edge="1">
                    <mxGeometry relative="1" as="geometry"/>
                </mxCell>
                <mxCell id="-EIdFgMRcUlDATralc_O-7" value="&lt;font color=&quot;#ffffff&quot;&gt;Network Switch/Router&lt;/font&gt;" style="image;html=1;image=img/lib/clip_art/networking/Switch_128x128.png" parent="1" vertex="1">
                    <mxGeometry x="670" y="480" width="120" height="100" as="geometry"/>
                </mxCell>
                <mxCell id="-EIdFgMRcUlDATralc_O-12" value="" style="fontColor=#0066CC;verticalAlign=top;verticalLabelPosition=bottom;labelPosition=center;align=center;html=1;outlineConnect=0;fillColor=#153550;strokeColor=#2D71AB;gradientColor=none;gradientDirection=north;strokeWidth=2;shape=mxgraph.networks.terminal;" parent="1" vertex="1">
                    <mxGeometry x="920" y="600" width="130" height="125" as="geometry"/>
                </mxCell>
                <mxCell id="-EIdFgMRcUlDATralc_O-14" value="&lt;b&gt;&lt;font color=&quot;#ffffff&quot;&gt;Terminal 1&lt;br&gt;192.168.0.2&lt;/font&gt;&lt;br&gt;&lt;/b&gt;" style="text;html=1;strokeColor=none;fillColor=none;align=center;verticalAlign=middle;whiteSpace=wrap;rounded=0;" parent="1" vertex="1">
                    <mxGeometry x="410" y="732" width="130" height="30" as="geometry"/>
                </mxCell>
                <mxCell id="-EIdFgMRcUlDATralc_O-15" value="&lt;b&gt;&lt;font color=&quot;#ffffff&quot;&gt;Terminal 2&lt;br&gt;192.168.0.3&lt;/font&gt;&lt;br&gt;&lt;/b&gt;" style="text;html=1;strokeColor=none;fillColor=none;align=center;verticalAlign=middle;whiteSpace=wrap;rounded=0;" parent="1" vertex="1">
                    <mxGeometry x="920" y="730" width="130" height="30" as="geometry"/>
                </mxCell>
                <mxCell id="-EIdFgMRcUlDATralc_O-16" value="&lt;b&gt;&lt;font color=&quot;#ffffff&quot;&gt;Phone&lt;br&gt;192.168.0.4&lt;/font&gt;&lt;br&gt;&lt;/b&gt;" style="text;html=1;strokeColor=none;fillColor=none;align=center;verticalAlign=middle;whiteSpace=wrap;rounded=0;" parent="1" vertex="1">
                    <mxGeometry x="665" y="710" width="130" height="30" as="geometry"/>
                </mxCell>
                <mxCell id="-EIdFgMRcUlDATralc_O-18" value="&lt;div style=&quot;text-align: left&quot;&gt;&lt;span&gt;http://192.168.0.1&lt;/span&gt;&lt;/div&gt;" style="text;html=1;strokeColor=none;fillColor=none;align=center;verticalAlign=middle;whiteSpace=wrap;rounded=0;fontSize=10;fontColor=#0066CC;" parent="1" vertex="1">
                    <mxGeometry x="920" y="602.5" width="130" height="30" as="geometry"/>
                </mxCell>
                <mxCell id="-EIdFgMRcUlDATralc_O-19" value="&lt;span style=&quot;font-size: 10px&quot;&gt;http://192.168.0.1&lt;br style=&quot;font-size: 10px&quot;&gt;&lt;/span&gt;" style="text;html=1;strokeColor=none;fillColor=none;align=center;verticalAlign=middle;whiteSpace=wrap;rounded=0;fontSize=10;fontColor=#0066CC;" parent="1" vertex="1">
                    <mxGeometry x="410" y="602.5" width="130" height="30" as="geometry"/>
                </mxCell>
                <mxCell id="-EIdFgMRcUlDATralc_O-20" value="" style="shape=image;verticalLabelPosition=bottom;labelBackgroundColor=default;verticalAlign=top;aspect=fixed;imageAspect=0;image=data:image/jpeg,/9j/4AAQSkZJRgABAQAAAQABAAD/2wCEAAkGBxIQEhAPEBAPEBAQERIVEBUVFRASFhAVFBcWFhURFRgYHSggGBolGxMTITEhJSkrLi4uFx8zODMsNygtLisBCgoKDg0OGxAQGi0lICUtLS8uLS0tLzctLS0wLS0tLS0tLS0tLS0tLS8tLS0vLi0tLS0tLS0rLS0rLS0tLS0tLf/AABEIAOEA4QMBIgACEQEDEQH/xAAcAAEAAgMBAQEAAAAAAAAAAAAAAQcCBQYEAwj/xABCEAACAQEDCAYGBwcFAQAAAAAAAQIDBBExBQYSIUFRYXETIoGRodEHMkJSscEUFSNTcpLhM2KCorLC8CQ0Q3PSFv/EABsBAQACAwEBAAAAAAAAAAAAAAAFBgEDBAIH/8QAOREAAgEBBAYJAwIGAwEAAAAAAAECAwQRIVEFMUFhgdESIjJxkaGxwfATFOFC8QYjM1JTgkNyoiT/2gAMAwEAAhEDEQA/ALxAAAAAAAAAAAAAAAAAAAAAAAAAAAAAAAAAAAAAAAAAAAAAAAAAAAAAAAAAB57VaoUoudScYRWLk0ly5nJ5Vz5gr42em5v3p3xjzSxfbceJ1Iw1s30bNVrPqRv9PH21naHitWU6FL9rWpQe5yjf3YlW5Qy/aa9+nVmoP2YvQjyujj23mrvOeVqyRK09Df5JcFzfItGtnlZI4VJT/DCfzSPL/wDeWX3K/wCWH/srchmp2me46o6Js6zfH8IslZ+2X3K/5af/ALPvRz1scsZzh+KE/wC28q4gK01NweibO8/H8Muay5as9XVCvRk3s00pfles2JQ7Z7rBlq0We7o69RJeze5R/LK9eBsja80c9TQv+Ofivdci6gcBkn0gPVG00/46fxcW/g+w7LJ2UaVojp0akakdt2MeEk9afM6IVYz1Miq9krUO3HDPZ48z2gA2HMAAAAAAAAAAAAAAAAAAADFu7W9SWPAAyOXzgztp2e+nSuq1VqfuQfFrF8F3o0+dGdjnpULPK6GE6ixlvUN0eO3ljyByVbRsh4k3Y9GX9et4c+Xjkei35Qq2iWnVnKUtl+EeEVgkeZghnG3eTiSSuWogxZLIBkMgMgwZBiyTFgyiACAAz62S11KMlUpTlCSwcXc+T3rgz4sxAuvwZY+befEal1K1aNOb1RqLVCX4l7L44cjtlr1lBHUZqZ3zszjRrXzs+G+VHit8f3e7c+qlaXqn4kLbdFJrp0Fj/by5eGRawPhZ60akYzhJShJJxknemntR9zuK+AAAAAAAAAAAAAAACvs8s49Nys9GX2a1VZL23tgn7q8eWO2z1y30EOghK6pVj1msYQwb5u67v4FdnJaKt3UXEm9F2NP+dPhz8dX7Agkg4ycIZDJMWDJAYIMAEMEAyYsglkAyQAGDJDIDIMAhkAhgydRmZnO7LNUqrbs83rxfRt+3HhvXbztaE00mmmmr01rTT2ooBlhejvOG/wD0VV60m6De1LGl2YrhetiOuzVbuo+BC6VsPSTrwWK171nw2+JYAAO4roAAAAAAAAAPNbbVGjCdWbuhCLlLsPScP6ScpaMKdlj7fXqfhi1op83e/wCEw3cjRaa30aUp5euzzOKt9vlaKs603rnK/lquUVwuuR8Yz9l4nyE9av2rHm72zirR/UbP4V0m1N2So+1fKL365Lj2lvUs0eghnxhV2M+t5zF6QZAZDBkhkH3sVlnWmqdKLnJ4JfF7lxO4yPmXThdK0PpZ+4r1CPB7ZeC4HuFKU9Rz2i10qC67xy2/N7OEoWedR6NOE5y3RTk/A2VLNe2SwoSX4nGPg2WjQoxppRhGMIrBRSil2I+h0qyr9TImemZvsQXG9+lyKtnmjbVr6FPlOk/7jx1shWmHrUJx53eZbxEknqaTT2PWYlZU11Xjvx5ep5Wma22MfPmU79U1/u5eHmR9UV/upd68y0bZkeMtcOpLd7L8jR16MoPRkrmv8vRFWiVooPrxV2avu9cH3nVT0m56kvPmcV9UV/upd68yPqev91Lw8zsyTl++nkvPmbfvp5Lz5nFfU9o+7l/L5kfU1o+7l/L5nbEmPvp5Lz5mfv6mS8+Zw/1NaPu5fy+ZnQyZaqco1IU5RlCSlFpx1NO9PE7eNJ8j6RgkeXb55Lz5j76p/avPmdPkq1OtShUlHQlKK04+5L2o957jQZDtGjNweE8Oa/T4G/LJYrR9xRU9up9/7XPiVyvT6E2tgAB1GoAAAAAAFN5zW3p7VXqezfdDlFXK7ndf2lrZZtPRUK1XbCnJrnd1fG4pSJrm9hC6YqYQhx9l6syIv/zi9V4BravIaE5U5KcHc0708mtR85q7xuJhUu5EtXrlq54u8+bOOUOi7j63o23RttmjXjg3g1lJa1y3NHqTvPtYbJOtUjSpq+U3cty3t7kjXRm0WVmFkzQpfSZLr1vV/dpp6u9q/kkZp0+nK432u0qhSc9uzvNxkPI9Oyw0Ia5P9pPbJ/Jbkem326nQg6lWahHZvk90VtZGUbdChTlVqPqxWG2T2RXFsq7K2U6lpqOpUfCMVhBe6vPaWCw2F190V8uXzApNrtbi+k8ZP5j7LwN/lPPapJtWeKpx2SldKb43YLxNBaMs2ieuVoqvlOUV3K5HhbMWyx0rLRpK6MV7+LImdapPtSfzuPbSytXh6teqv4p3dzdxucnZ62im0qqjXjtvuhPsa1d6OXbIbM1LPSqK6cU+HvrPMK044qTLdyPlmjao6VKWtetB6pQ5rdxWo9VrssasdGXY9sWU5ZLVOjONSnJwnF3pr4PeuBambmWY2ykpq6NSOqrH3Zb1weK/Qr2kdGqlG9YweGOzvzW/PLAlbLa+m7nhJGntNB05OEsV4rY0YRi3gdJlSyqcdK7rQ1ritppSg26zuzVOitTxXzNciwUKn1I37T5Ro7z6KKRJBw3m64AEGDJnSqOMlJYxuu7DroTTSawaTXaccdNkmppUo8L15eFxN6Fq3TlTzV/hh7nFbI4KR7gAWIjwAAAAADms/wCro2KqvflTj/Opf2sqssz0k/7Rf90P6ZFZGqesrelX/PX/AFXqyQQDyRo8ruxmNTfsbd3eZEb12rgknq7/AJmqrG9Xlh/hzSX2lp+nN9Spcnul+l+z3NN9m8WSzurOnSWNScYrhpNK/wAS7aNJQjGEVdGEVGK3KKuS7kVNmhT0rbZ1um3+VSa8Ui3DNlWDZbdMSfTjDJX+Lu9jgc/soudWNnT6tJJy4ykr/CLXezlGz25aradorz31J3clJpeCR4Gy92akqVGMFl+5Sq03Oo5bw2Ythshs3mkNmLYbIbMgNm8zLyk6FqppvqVupP8Ai9V9kruxs0LY02ta1Na1zWtHipSVWDg9uHz1W89Qm4SUlsLzOdtNPRlKO56uWzwN9RnpRjL3op96vNTlZXVOcU/l8j5lpmF9GMtqfrf73Fssb67WaPCAQVokgASADeZvz6s47mvFfoaI3Gbr11Fwj8yQ0VK61RWd68mc9qV9J8PU3gALaRQAAAAAByXpK/2i/wC6HwkViWp6QqelYqj9yVOXK+Sj/cVWap6yt6VX/wBH+q9WAYg8kaZEEABq83WaMrrZZpb3JPnKMld4lsFL5MtXRVaVX7urCT46N36l0LXrWtPDiZpRuvRcLPpB2yjBzfXgujLfdfdLinc85Rb2lP5YpuFevF+zUmv5nczxtnS5+2B07R0qXVrxv/ijcpL+l9pzDZeLPUVSlGa2ohq0ejNp5hsxbDZDZuNYbMWw2YtgBsxkZNm0zVsDtFqo07urGWlPhGGt97uXaYlNQi5vUsfDEzGLk+itpbtmhowhF4xjFPsSRqcrv7TlFefzN2c5bKmlOUtl+rktS+B8x0zO6go5v0TfIttjjfNvJHwAJKySQIAMAG4zdxnyj8zTm8zej1aj3yXgiQ0XG+1w3Xv/AMs57U/5T4eqNwAC3EUAAAAAAa7Ltm6Wz16aV7lTlo/iSvj4pFJpl+lJZfsP0e016KVyjN6P4ZdaPg0a5kJpin2J96917mvBAPBBkkAAAs/MbKyr0FTk/tKKSlxi/Vl3K7s4lXnsyVlKdmqxrU8Y6mtkovGL4PyMxdzOuxWn7er0nq1P5u/G0tbL2So2qjKk7lLGnL3ZrB8tj4Mqe12adKcqdSLjODukn8eK4lvZKynTtVNVaTvT1STxhLbGS3nky9kClbI9fq1IrqVFiuD96PD4ExYLf9Dqz7L8nyzXEsFooKslODxu4NFStmLZvcq5qWqg39m6sNkoXy74+su7tNFPU7nqaxT1MslOcaivg7+4ipxlB3SVxi2GzG/ZtNtk3Nu1WhrQoyhF+3K+nFcdet9iZmc4wV83ct+HqYinN3RxNTFNtJJttpJLW23gktrLUzLyB9EpOdRfb1bnP9yKwp/N8eQzbzTpWS6pJ9LX95q5Q/AtnN6+Ru7fbadCEqtWSjCOL3vZFLa3uK9pDSCqr6dPs7Xn+PXu1ydms30uvP8Abe/mBGUK+hB73qj5mgMqlqlVunNaN+EfcTwv47+JifO9I2r69bDsrBe74+iRZLNT6EMdbxBABHnQACAAdLkano0ov3m38l4JHNxi20li2rubOvpU9GKisIpLuJrQtO+pKpkruLx9F5nHbZdVRPqACyEcAAAAAACvvSfkz9la4rDqVPjCX9S7iwTx5TsUa9KpQn6tSN3J4qS4ppPsMNXo57VQ+tScPDv2fMijAfa22WdGpOjUV06cnGXZtXB4rmfA0lQaadzJBAAAAAPfkfKtWyz6SlK5+1F64yW6S+ewsfIeddC03RbVKq/Yb1N/uywfg+BVBJ6TaOyy22pZ8Fisn7ZF7HzqUoy9aMZc0n8SoMn5xWqgkoV56Kwi1GUVwSlfd2G6pekC0L1qVGXZJfBnrpImIaWoSXWvXzd+CxKdCEfVhCPJJfA+pV1q9IVrbujCjDVsi5PnrkaTKGcdrrpqpaKji8Yx0YRa3NRuvXMz0xPS1FLq3vy9SzcuZ2Way3xculqrCnF67/3pYR+PA5HJ1srZQrdPXf2NF306a9WMnsS2tYtvX2HHUaTnKMIq+UmrlvbwLKybY1QpQpLXctb3yZF6UtTp0uitcvTbyN2jXVt1fpywhC53Zy2J53a8tWGJ6yACrlqABAAJAA1mwyHZ9KppPCCv7Xh8zpDxZOsvRU1F+s9cub2fI9pcdH2d0KCi9bxff+FcRFep053rUAAdppAAAAAAAAAOH9IeQOkj9LpK+dNXVUvajsnzj8ORW95+gCqc982XZpuvRX+nm9aX/FL3eT2d26/xJbSC0pY/+aH+3Pn45nKggHkhSQQDAJBAAAAAPhVeswMp4s9GTbHKvUhSjtet7uPcYlJRTb1I2whKclGKvbwXezoczMm42mS3xp88JP5HWGFClGnGMIq6MUkuSMyoWqu69RzfDctnzM+iWKyxstCNJbNbzb1v5sSWwAEHOdYJBiADa5Esek+lkurH1eL39h5cn2J1pXYRXrPy4nT04KKUUrklckTGirE6klWmuqtW959y83uvOS1Vuiugtb8j6AAsxGgAAAAAAAAAAAA+VejGcZQnFSjJNST1pp4pn1ABUud2ac7K3VpJzszfN0b/AGZb47n38eYL+lFNNNJpq5p601uOCzmzE0r6tjuTxlRbuT/A3h+F6uWB4cbtRA2zRjXXo6suXLwK9BlWoypycJxlCcXdKMk70+KZieCGAIIAMheYkSeoA+R2+aWTejp9LJdeqvywWHf5HOZvZN+kVVevs4a6nLYu0sFELpa03L6Me9+y46/DMtP8P2G9u0y2YR79r4al3vakSAQQJawSCEBrIPXYLDKs90FjL5cT2WHI7ldKr1V7u/nuN3CCikkkksEthM2LRUptTrK6OW19+S8+4461qUcIYvMihRjCKjFXJf5ez6gFkilFXLURzd+LAAMgAAAAAAAAAAAAAAAAAA1mV8i0LXHRr01K71ZLVKPKS19mBweWfR7VhfKzTVaOyEroSXDdL/NRZ4MNJnLXsdKv21jntKCtdlqUZaFWnOnLc4tPmr8Uecv+vRjUWjOMZxeKkk0+xmit2Zdiq3t0dBvbCU4+F+j4HnokVU0PJf05J9+HmsCnSJLYtbeHEs6t6OKD9StWju0tGXwuMcn+j+NGpGp07no60nTS17Pa2eR4l0optK/dmaYaKruaUrkr8XfqWd2t9x5Mg5N+j0lF+tLrTfPyw7zYm4+on94vyvzM45DSxqN8kl5lZlo+2VJuU44vfHmXenUoUoKEHglctZoyYxbdyTb3XXs6OlkmksY6XN+R7KdOMVdGKiuCSOinoWo/6kku7F+dy9TErbH9KvNDZ8j1Ja5XQXHW+429ksMKXqrrb3rf6HsBL2fR9Cg74q95vXwy4HJUrzng3gAAdppAAAAAAAAAAAAAAAAAAAAAAAAAAAAAAAAAAAAAAAAAAAAAAAAAAAAAAAAAAAAAAAAAAAAAAAAAAAAAAAAAAAAAAAAAAAAAAAAAAAAAAP/Z;" parent="1" vertex="1">
                    <mxGeometry x="448" y="623" width="55" height="55" as="geometry"/>
                </mxCell>
                <mxCell id="-EIdFgMRcUlDATralc_O-24" value="" style="shape=image;verticalLabelPosition=bottom;labelBackgroundColor=default;verticalAlign=top;aspect=fixed;imageAspect=0;image=https://design.firefox.com/product-identity/firefox/firefox/firefox-logo.png;" parent="1" vertex="1">
                    <mxGeometry x="960" y="626" width="46.53" height="48" as="geometry"/>
                </mxCell>
                <mxCell id="-EIdFgMRcUlDATralc_O-25" value="" style="shape=image;verticalLabelPosition=bottom;labelBackgroundColor=default;verticalAlign=top;aspect=fixed;imageAspect=0;image=https://images.macrumors.com/t/ri_TS4t6a9JRbobluZj2gbifqFk=/1600x0/article-new/2016/04/ios7_safari_icon.jpg;" parent="1" vertex="1">
                    <mxGeometry x="715" y="643.5" width="30" height="30" as="geometry"/>
                </mxCell>
                <mxCell id="-EIdFgMRcUlDATralc_O-27" value="&lt;b&gt;&lt;font color=&quot;#ffffff&quot;&gt;Underlying OS (Ubuntu, MacOS, Windows)&lt;/font&gt;&lt;/b&gt;" style="rounded=0;whiteSpace=wrap;html=1;fontSize=10;fontColor=#000000;strokeColor=#FF9933;strokeWidth=3;fillColor=#FAB282;gradientColor=none;opacity=50;" parent="1" vertex="1">
                    <mxGeometry x="350" y="350" width="760" height="54" as="geometry"/>
                </mxCell>
                <mxCell id="-EIdFgMRcUlDATralc_O-28" value="" style="shape=image;verticalLabelPosition=bottom;labelBackgroundColor=default;verticalAlign=top;aspect=fixed;imageAspect=0;image=data:image/png,iVBORw0KGgoAAAANSUhEUgAAAOEAAADhCAMAAAAJbSJIAAAAkFBMVEXdSBT////cPwDbOQDbMgDcQgDbOADcPQDdRhDaMADdRQzcQwX0zcT++Pb88e765+L439n77Ojur6HjclX10MfqmojplIDzxbvrno3218/gXTfwuKzmgmrxvrPjb1DhZEHiaknkeV7eTh3spJTvsqTniXLeTRvploLhZUPojnrkdlr329Tmg2vfVizgWTDsopIdjTroAAAPoUlEQVR4nN1dZ2OyPBQFEpIA7rpnrdph26f//9+9IKAgWTcE6tvz6RnVcsi46+TGcVtCd9gfLMadBOPFoD/stvWLnYa/v/s5G033yxBjTAhBKeI/xX8Pl/vpaPbZNNUGGQ42k22ECaKeHzKnChb6HkUER9vJZtDcYzTDsNuZvGNCvYjHrMI08ijB7/NOM6PZAMPxfImRF2pwKyL0EF7Ox/YfxzLD3upMCJjdjSUh51XP7iPZZNg77gIaGbLLEdFgd7RJ0h7DzRZT08G7G0qKtzNrz2WJ4WCKUN3RKyJC6MPS/mqF4WyJPZ1dEwLm4aWVgazPsHvwkZ3ZeY8Q+Yf6FqQuw+4bobaH7wZGyaQux3oMe9PA+vS84+gF03o7ax2G3TfsNUovhYff6oxjDYYHRFvgl4Ciwy8wnPmo2flZBEO+8b5qyLD/jNvjd+GIn/ttMpwENs27HqJg0hrDBWtrAZZB2aIdhqeg3Ql6AwtOLTD8rQFMQR3wMEIZTn5tAFMw8GqEMewtf3MAU9AlzMcBMeyQ9rfQKiLSaYrhb8/QHLCZCmC4Rb9N7Qq0bYDh8NX/bV4FeK9D2wwXpJko1xQh0TUbmgw3D7IEb2DBxibDQ/DbhDgI9EIqLYZT3Oqjs9D3+aWOMvDUFsMTaYFWDkax//z1cdpGWJkAIjpuqgbDdYtWgqHwkOdJ+6MXouCI1jYY7lt01Dy/vH3MXhW/nO7rM1y3SJBUh+RDsQVQ5SiqGJ5anKL4h/MAK8U2jlRrUcFw2uImQ/i7/0oxikSxo8oZHlo0E55ovr0p1gmW20Upw02Lhp75wsf4VjiMcu9GxnDRpidDxAnRhWomBTIfVcJwqLJGNsG+JQ/5rhhERiSRhoTha5vRBB1JGG5UFit8NWG4bTUexLJ4r6tcLp44JBYynLQa0TP5nr5UTickTGyIvrnTbrzk76UMP9TzKRClpwQMe23uMjE8udk+qF1HRgRJRgHDXQNpQxb5vpfA96P7WefNpQxHGs5xtIMwnFh1t5mfCPTw99P6YzKfzycf66d/JMCI+teJ4r1JGWqMYbwd85cil6FFU5/I1Zz1YTa4L1R3+53R10sugPPlIcJUq5rON/xcho6lRehT/G/SkSXhe535ZZ+UGnzXfdYyzfwNmfePH1bmaEiD80anxHDxybD0JzUDAPqhx9DGHGUeft5oKigug0hl3nNH1zbz5imHYf05yiia6Ffd58kiC98lP7HXda9487T6T/X30ZAdtenF+EynqTg+6OtHqbRqdSoM+7XnKJO4wVxc4r9wKfz/LcA4B5W5U2H4XN/WI6D2ZXNZZkJV0AqSSYmeVQxnFvIWCje6CnZZ+ZjvWX7CJhW+f733D6OlrhchH35psMdBJ32tXIqfQA+ZhXKGOg6gCCFaZ64HI0Cp3T79YFB9Myuw9ur+9ZYZdmto1ei/4TVnpAgVqnDSD5I7adfwDF80DJVfb5mhuaVgl0LQ1VkItEu0GZVsLkbB/nbkYrEOTPIMdx54iWHPeJsJswW+zh7JP8MYuoO8xuwTep4fV8f53iOGeZSyB1hiqOfCc+BH/fwdZdNcYsD56Ec5n+SUEKWeb7xgyqFYkWHP1Nh7y+vUH2UupMSAi/BkTdAZFFdikeHEcAjpU+FLXrLZRjTL7AVsfEuieK+4EgsMu4a5mXKZcpxNBEmWXoxRvPZuD8F8ZLYSS9aqwFArVcAh+FV+yjwQoEba7M7JxyhehZQi7K3HhsW94u8uMDRzZyolynxDBpv9HP3O6jA/HDuXzcusQMsiHsOZ0evynipPmM8FjxNxd3u9Hoz42Yhioc5zY6jOK3Pg87bMfLMpRjL92c96RwOcIEDL9c9MN0TemazFwlZ+ZTgwsfZhyBuQcfZVfja+vc06WVwFiUzoe/Ey2690PJ+uY/Lq8fXk25WhibVnmD8Q5+y1J2a/u9phyrXe8VaJl0f1nO2b2MmbZ3xlaOJzV2KxDPlmEy77p0B67DKkwZfynGHHYHoxdM/QZJ+hwgjikHs2Gq6lj7cqD+/N4OGuiYac4RM8eRH+Ez/TK2RGRPisWJAGu2CUb/IZQ5OoQlbUHMO+zw/klZmhyeP1SgyPcKtDpCnDJ+Bbpy+fsq87wnU9dFViqNICVBEKilkp4B5gKJeL7uAP+FxkaBA3VROTxRE0kVIRmTzdII0b9AoMV+DNikoKfr0XszDMe5WUZ1TKqCrQpsBQuzCQg3mS1+2ZJpVDKpkY4Ngx0wakDMGTCq2ETzKooepnWGz+wfOMkRvDMZQhexGPYC2Ng8gPTACysQnI+MpwDl03SJii6Bk3NknBqHAtbqCDmMofLgyhLoOkMPFSVyoWiqeHhny//FXLnGEX6jFQ4Sp8qn9AXyzgOkIHEXczhtpF5AyMip7hYENSLNAKu/D4B3UyhtBlKJT3AAthIgQiB+7N5EEThnpajhuELnftRZhCqKUElLvTL3rOGAI/Vy2zZpjbUlIJ1E1w9xmnDKEZGpGpGNpTUolKV1CDkTgQjoYC9/5jghd8tie5FZWu1FLaMhKVjgMuV4ikoEq9OQRYsNkAUxFJAcMBf0qkXrIg4rghEhhFoHOapDIcsKsgUKAZ5VvFCPguODDbksgWHKhHI4rtv+wK333BcaZ/sN009mqcONqR/1DSobJQkA2X3BwudA9QIuCnioGbBhnEDKWZ0gjh5WlymHx947xlWRTypqlBKksOge8L9DDRLGYokdCEwdMsf5W91RKnHEOH83qN6joyCMSKwIVIRzFDccGCvJeXe+clfRmcgpNJQlMBwY4Gi4O9acxQlKNhHIVSdqITVdJQK/snTQVWaQ3a0WLj7YjmF8O8bqnHdEOpeP/gVJbGw/HF7bBMbBwEOyJJsEAQc8TZB8tooPOeQOoAKyGxmJ8gzybM2Z8u7/BORggNa7TAD9JUxu2eh+vwDb4wQspk4Hf/b6YBUIAvxAU6KLjr8HdBSVJvdnmJ5fjmp4n+iQK5CpDh0OnzRl16lOwisSyrOGEbnCYEW803aMmTvsOd10TWdfriIpSdf+v2PoHAA4aFQmTgLDgMxcm0BOm2UoqDGzmNyaLObDbbrFbH0ehw+PmZTyaT6cfHP9gYLpwx5+miqgyoiEuNpLTTNXMckyGEKKIZvBRAUSYaOzxX1pP30rrMk2IXI3BKuT2gDpehQmt/8p0s25rBXFvcOEQM5ad6Lr560Vr9Dxn++TH8W+vw0fdSerebwvfSh7eHm83qmFrE+dzIHv59nwbul74kL7ENv/SL++vBfqmd2KKJdlm2YgtwfMj+b/GhKMYXmcTTJRT8P8X4wjwNf7MZtZenibgPYJCnAeXaUoLVuslD59oM8qVV2d5D50vFOW+0E+S8q4aqvZw3rB/CJectrVtsC3WLf/k5T17dAq5wVcBi3QJce3JaqT0J1I8mtae/Xz/8+zXgv1/Ht6XFgPTnUEIUoZppMSzpaT4fV0/zhzVRKNVEQd1m0TRtQdcGVbMnQaCBNjFsXpsoErBC/YpMmwjXl4rCY1v6UpHU21hfCtYIi5KNg0fVCP99nfff1+pbPW9R1+5LzltAWyLczltYPTPjP9CZmZ8rQ/i5J3FLtubOPYF7ARbOPbngp5KcXevXObtGxGfXwKswO7Buev5QUtno+8bnD73Gzh9aPkP6bXiG9MXqGVJaPENqEKFLzwGfjc4By2p6JueAuwWGYMdNdZYb3tku5CQvC4BnuvLCQ8bQIN+JpE8EPY+PXqTtMUa1z+Mb9VSQzFNgsw4/4F1PcoNRT4VuiaFRXwxJd2OQ7YrwXtEXA5h/unxpHkTX6m3Ca0x8QV5c0OptEmylDSNck32U09uksf40WHrxekiDk7I/jUlP1ZvBrtVjSLQUyz2GniU9hnYt9hgyil6Zb9oniiLsr/X6RDETL/Bmrm9xkFFthd/ri93/lvZ7fd2sdaFfm1F8zolX7fZre7LXrw18oD9F5eazh+i5V2gmXGBo2EP4vq1gvb6Js69i38TOh2HfxIK/Vex9adhEuDyK+TYjEBrIcbDU+xLxe1+a9y8trsU6/Us9S/1LqaB/qXmV00oP2u62+R604IzrFTb6CPvFPsKomT7CNbS+LHPg8m1GcbtRFZ/t9IKu1c87sX7G/bxzz6zpft71erJ/D6/bDLQne+6ZNd+TvWZf/X3eVx9Z66u/sdxX39SxyWB6N0IWHnGVdJ9AiozdfUEj91tALykJbd5vcf8tlRqLBUmF5DpKLlY27yipRAJN3DMjrh7xobpn5gmwo1Zj8mqdrH41PoxM7goSJ2sgdwVVc3YN3fdE3h74vidbd3btVvbu7NJdiZp3dtm6dw0F29Vj3rtm0INRgKjlu/O4VorL0FJnuQR27j/UC3r4KhW+5mBu9YRIfoflttk7LBFfSfUo95DKTzzquMscfb2MYa9GkGECC3fJIthdsv/D+4BFBwr/zJ3Owqbu4m+2IOACoO693GINgOTdWdJS6qHm3eoSZ1/CsNWbq6UBiapoJNxlFAxtXnyshiSoVF60wL/qWIOhO2uRouQGrG/FEAbSiFu+h41abCXgiRy3qWIVYnlWSHFl6JsN0a8mBNrgleItE7k7pGLoGpa3jIB5opqjYqUgoSBEk6H71SJFUp2oJ8UIIsEJMABDd90iRc8vh/qzV8UaRPKoS49hq6PIUHjI9TX90YvKIt/f22fI0D21uN04jGL/+evjtI2wsl5KVGtQl6E7abf/DAt939coL2DFLgpg6I7ajaX0IBekAhnG3k27EbEaTO7JgBm6ixoK/CYQIt0yuvY16EPDK46agVT0bsgwDolbjfqlQPJGVqYM3cmDLEamuIfOnKE7NtQo2YWPZF2s6jF0e++/P1PRu/YSNGDouvNfnqlMoeqvz9D9VDnDjYK+KlXhtRnGIeOvDSMLdBzR+gzdhfM7w0gdqFjOlKHr/uAGKjcK+NwUQFMM3b49qaQeGN7qKwNsMHTdDrMkd9XiRx2+nKhJholYtq3lSOXn5Bpj6HbnuA1v3MNzQ9V/bYaxjzNRpxrqgVE8gfkwdhkm44ga5MgoqjV+NhjGGLGGouOQsBrrzyJD153tAuutIZkX7IAaRz6sMIzt45Qim06Aj+jU0P7dwxLDGLMztkQyQvhsZfgusMcwOUy5DfiHKfXBfBpsdTV/WrDJMEZ3s0bE+ErgkBK03tik51pnmGDxs8QEfDd35BG8/DEJHhRogGGM7ni+xRh5Wj1zWOQhjLfzseXBy9AMwwv6s8mZYZIcYeIWIVjSVRMRzM4T7SOzBmiQ4QXdwWz0tl++EowJIShF/Kf4r6/L/duoKsu0jaYZXtEd9geLcSfBeDHoD5smdsV/SQ4ASpQ6UG8AAAAASUVORK5CYII=;" parent="1" vertex="1">
                    <mxGeometry x="361" y="360" width="34" height="34" as="geometry"/>
                </mxCell>
                <mxCell id="-EIdFgMRcUlDATralc_O-30" value="" style="rounded=0;whiteSpace=wrap;html=1;fontSize=10;fontColor=#000000;strokeColor=#006600;strokeWidth=3;fillColor=#5DA670;gradientColor=none;opacity=70;" parent="1" vertex="1">
                    <mxGeometry x="625" y="70" width="210" height="70" as="geometry"/>
                </mxCell>
                <mxCell id="-EIdFgMRcUlDATralc_O-31" value="" style="rounded=0;whiteSpace=wrap;html=1;fontSize=10;fontColor=#000000;strokeColor=#666666;strokeWidth=3;fillColor=#B3B3B3;gradientColor=none;align=left;opacity=70;" parent="1" vertex="1">
                    <mxGeometry x="870" y="70" width="210" height="70" as="geometry"/>
                </mxCell>
                <mxCell id="-EIdFgMRcUlDATralc_O-32" value="&lt;b&gt;kuag6idvh9vvd51&lt;br&gt;&lt;/b&gt;ciscosg:latest" style="rounded=0;whiteSpace=wrap;html=1;fontSize=10;fontColor=#FFFFFF;strokeColor=#666666;strokeWidth=3;fillColor=#B3B3B3;gradientColor=none;opacity=70;" parent="1" vertex="1">
                    <mxGeometry x="380" y="160" width="210" height="70" as="geometry"/>
                </mxCell>
                <mxCell id="-EIdFgMRcUlDATralc_O-34" value="&lt;b&gt;kuag6idvh9vvd5c&lt;/b&gt;&lt;br&gt;mikrotik-interfaces:latest" style="rounded=0;whiteSpace=wrap;html=1;fontSize=10;fontColor=#FFFFFF;strokeColor=#666666;strokeWidth=3;fillColor=#B3B3B3;gradientColor=none;opacity=70;" parent="1" vertex="1">
                    <mxGeometry x="625" y="160" width="210" height="70" as="geometry"/>
                </mxCell>
                <mxCell id="-EIdFgMRcUlDATralc_O-35" value="&lt;b&gt;kuag6idvh9vvd5r&lt;/b&gt;&lt;br&gt;ciscosg:latest" style="rounded=0;whiteSpace=wrap;html=1;fontSize=10;fontColor=#FFFFFF;strokeColor=#666666;strokeWidth=3;fillColor=#B3B3B3;gradientColor=none;opacity=70;" parent="1" vertex="1">
                    <mxGeometry x="625" y="250" width="210" height="70" as="geometry"/>
                </mxCell>
                <mxCell id="-EIdFgMRcUlDATralc_O-36" value="&lt;b&gt;kuag6idvh9vvd5v&lt;/b&gt;&lt;br&gt;ndi-discovery:latest" style="rounded=0;whiteSpace=wrap;html=1;fontSize=10;fontColor=#FFFFFF;strokeColor=#666666;strokeWidth=3;fillColor=#B3B3B3;gradientColor=none;opacity=70;" parent="1" vertex="1">
                    <mxGeometry x="870" y="160" width="210" height="70" as="geometry"/>
                </mxCell>
                <mxCell id="-EIdFgMRcUlDATralc_O-37" value="&lt;b&gt;kuag6idvh9vvddd&lt;/b&gt;&lt;br&gt;comrex-briclink:latest" style="rounded=0;whiteSpace=wrap;html=1;fontSize=10;fontColor=#FFFFFF;strokeColor=#666666;strokeWidth=3;fillColor=#B3B3B3;gradientColor=none;opacity=70;" parent="1" vertex="1">
                    <mxGeometry x="870" y="250" width="210" height="70" as="geometry"/>
                </mxCell>
                <mxCell id="-EIdFgMRcUlDATralc_O-38" value="" style="shape=image;verticalLabelPosition=bottom;labelBackgroundColor=default;verticalAlign=top;aspect=fixed;imageAspect=0;image=https://containrrr.dev/watchtower/images/logo-450px.png;" parent="1" vertex="1">
                    <mxGeometry x="890" y="85" width="40" height="40" as="geometry"/>
                </mxCell>
                <mxCell id="-EIdFgMRcUlDATralc_O-39" value="&lt;span style=&quot;background-color: rgb(179 , 179 , 179)&quot;&gt;&lt;font color=&quot;#ffffff&quot;&gt;&lt;span style=&quot;font-family: &amp;#34;helvetica&amp;#34; ; font-size: 10px ; font-style: normal ; letter-spacing: normal ; text-align: left ; text-indent: 0px ; text-transform: none ; word-spacing: 0px ; display: inline ; float: none&quot;&gt;&lt;b&gt;Watchtower&lt;/b&gt;&lt;/span&gt;&lt;br style=&quot;font-family: &amp;#34;helvetica&amp;#34; ; font-size: 10px ; font-style: normal ; font-weight: 400 ; letter-spacing: normal ; text-align: left ; text-indent: 0px ; text-transform: none ; word-spacing: 0px&quot;&gt;&lt;span style=&quot;font-family: &amp;#34;helvetica&amp;#34; ; font-size: 10px ; font-style: normal ; font-weight: 400 ; letter-spacing: normal ; text-align: left ; text-indent: 0px ; text-transform: none ; word-spacing: 0px ; display: inline ; float: none&quot;&gt;containrrr/watchtower:latest&lt;/span&gt;&lt;/font&gt;&lt;/span&gt;" style="text;whiteSpace=wrap;html=1;fontSize=10;fontColor=#000000;" parent="1" vertex="1">
                    <mxGeometry x="941" y="86" width="140" height="40" as="geometry"/>
                </mxCell>
                <mxCell id="-EIdFgMRcUlDATralc_O-40" value="&lt;b&gt;&lt;span style=&quot;font-family: &amp;#34;helvetica&amp;#34; ; font-size: 10px ; font-style: normal ; letter-spacing: normal ; text-align: center ; text-indent: 0px ; text-transform: none ; word-spacing: 0px ; display: inline ; float: none&quot;&gt;Mongo DB&lt;/span&gt;&lt;br style=&quot;font-family: &amp;#34;helvetica&amp;#34; ; font-size: 10px ; font-style: normal ; letter-spacing: normal ; text-align: center ; text-indent: 0px ; text-transform: none ; word-spacing: 0px&quot;&gt;&lt;/b&gt;&lt;span style=&quot;font-family: &amp;#34;helvetica&amp;#34; ; font-size: 10px ; font-style: normal ; font-weight: 400 ; letter-spacing: normal ; text-align: center ; text-indent: 0px ; text-transform: none ; word-spacing: 0px ; display: inline ; float: none&quot;&gt;mongo:latest&lt;/span&gt;" style="text;whiteSpace=wrap;html=1;fontSize=10;fontColor=#FFFFFF;fillColor=none;" parent="1" vertex="1">
                    <mxGeometry x="690" y="86" width="80" height="44" as="geometry"/>
                </mxCell>
                <mxCell id="-EIdFgMRcUlDATralc_O-41" value="" style="shape=image;verticalLabelPosition=bottom;labelBackgroundColor=default;verticalAlign=top;aspect=fixed;imageAspect=0;image=data:image/png,iVBORw0KGgoAAAANSUhEUgAAAOEAAADhCAMAAAAJbSJIAAAA8FBMVEX///9DmTRFpThGoDdAlDNPqkFKpzxXrkdgsk+2tZipqohbr09XrUtVrEhesVJis1HCwac/ozFmtVg1oCXOzbfz+fJAnjA2kCfb2sc5mydcqk88litmsVlSrT75/PhtuF5PpEGo0qM1lCK32rHV6NJJqTXk8OLe7ty+3bqx1KxNnj+Pxoiex5c+ly693bl4u3CBv3osjRpcnk7t7eWWy4xzumWWxo97uHLJ4sVrsWE8pCp3tm4tkherzqZbpk90sWqEuHygx5t6sXORvoxooVmJsnV0pGOXsX2ntY16q2ShtIhkplq6waPF0beio37f39LVdvCnAAAKW0lEQVR4nO2cCXvaOBCGwY4P8EEMAQqlDjkKKdmmSbPJptkuzZ7tdo/8/3+zPrAtyZIss+HRWM33C/Q+M5pvNGNotZ71rGc9SzUtZB9g5/peecTLI9kn2LVurKHsI+xWC8v8TvYZdqsjyxspHcShZfuTW9mn2KW+t+zD0UThcnr3yrZv9JG6QTy1bNs+1PWBqjdxGQPaPV0fPcg+ym6URDDSXNcnS9mH2YXuNoC9aRTED7JPswNdvLILQn2iXu92kgGmhPrkVPaJnlgF4IZQ19WqpwhgRjiahrJP9YQ6QgDzGI5m6iBigDmhPlGmoOKAds/RM8QfZR/taUQA2j1XVwuRBEx6mhzxB9nH+/86s3scQgUQF6+sPkno6Shiw19SYd+wDklCV8cQmz22OX9lWX0yTR0dR3wj+5T/QxevrUhkEH2dQLyTfc6ttUgASxexr5OITX0thraVEvYqCEfzhnbh8SW0KGk6Iwmb+iA+eW2JEuqTc9mn3ULLHNCy8Zt4WCbUByeyz1tboYWomrCB1ebSQAgPqwkb9yB+8xqNod+vJNQnD7LPXEunGCARxBsqoT64kH3qOjrEAfGLyCDUJw1yxYv7PkHYEyBskisapkME8abyHupNGhMfBYZrsy8ik1BvymJxaEQi0hQ1fTZhU/L09nWZEA0im1CfNKKeLoI4hkZvG8Jm1NNLzeCnKY9w1IAWfHmfABo+M01L70MsiPB3UjdmSmiRlihGCL/Y3KW3sBzEojflEuqTM9kIFZqZGSFp+nmakpMoMoqyEfg6y0NoeITp5zHs8QlhdzahZRQiLmIvR+QT6qC/ezsKEEJmNa0ghDzoDzUE0PBYpl9BCHnFf4Imadn0DwUJAa8yZprDIcxrTWUMwfZuy8B0eEEUJ4QaxO8C08UIiVqTVdNKQqieGDqa6bkcwk2t6c0rCYFu3E4Hpmn6WDUlENNxjQDhaCobhqrzICLE05S4iGlvKkAIc6cY3keApuGhhNTeVIRwBPE7lLOEEK+mZG8qTAhyKHWjJYQ+L00TwxAjhNe6LQLTLCPSqmlfhBCgYRxlhFzTFyeEV2v62oaQa/pxbyoYQ2jjjNP7DaBpOBVpKkYIrjk9z5K0otZEpi9KCKuvGXpaTuhZHMLI9PtuNR68ND0LvJwQN323lKaChMAs8TxwTHqaWsRLv9/rT6vpEsKfZFOhCrQihny/sPt9p5pOn07nU0id23KgGSzEUm/KJZzrbsS2bsf6CChN3ww0zWEFkRxIMbJ0Pp+vp6v1qp3rGFCavgs4hCVLJN1iHkVt2l4hbKnermVzFTK0SC6j1pS67znCNp2vS2S5PoIx/eU9QYgF0SQRvfi6zfPrxtYxmC3N2YAgxE2fTNPZdDVlBw5N00+yyTKdBzEhUk0NrP0mq+lchC7RCsrHbh8SQo1p+kSaToUJj4FshIdaKs/ICV1ebypO+BLIaHgxSAmNghCvNcT3Q+KEUC7ixYaQaYnetoTtNgy/uA3KhLxHYg3CjzAu4ruMEDEMjTOQqkEIpHHztDIhL4g1CF8+yIaLFQ5ohBzTr0H4diWbLtayIDQLRM5Aqk6l+QjB8+8KQrE0rUMIwvPfIISI6Xsei3BWhxBC852bBa83dbckBNHVvEMImZaIfnpShxBEV+MhgFhvyrqItQghFFM0hJrpMYLo2FsRtl/KxoteFvcoIfOlb21JeCy/M10MMELkIrLStB6h/JHiKU7IrDX+loTyDfGOIKw2/XqE8jelZwQh0/T9phIe4ZUGraYG/QupeoTy14i3AU6o+VVpWo/wZ9mAm1EiIqOqN63nh/LbthKhydpCZQOpeoTyP6y5JAmZpu8pQ8jcQvW3IXyQDVjOUvZAylGQkLpKbBphyS3wgZQChKTjEzeRsixtGuHJoEzI702bVkvJzjsWfyBVj/BX2YBUQmZv6jSxpyHfh4lYvanl1+5L5W8uljRC7rK0HqH8gemCRsgdSDXtfRhS3II/kGraFKNVdnyN35vWIwTw90oujRBBLC1L+7UI5c/a8Kk+LU1J06+ze2ofy8Zr0ds23PSJZalfh7AtG6+FfIqBV1PWstSxa+0tIHztTbV83ocZdbIUQOON7fFRMQdSZq0dsPyWJpJPLTWo6eMbjFqE8g2/RX3lE2mKW2KdewjjW296MdVc4wkIAawPW4zeW2NbYg3Ct3/Jhks0NCoJnS0JAbx/E9G7GpTQ3ZYQRKFhXkTWO1iIcL1erVd7e/J33ImWDEKG6VcQRmTr93uJxhC+NUnk0QkZps8gXK2iwO3Fgcs1lr9a26i8u0jEGEiVHX+9igK3QtlSXQF4/qaizdvYFxEljFNyXSLLBeQaRmIQogMpDyNMUnK1LocNFZxrKJKmiCVO2/zAFYTyd/i5yA8yMlFNf8qPHHINQTSlqUJ6DOmmPxME3IPwvs/FeF9QB1KiIRzLH+gjYjz0qd13WzRJAQwSETn0IFK2UJZoDCF8WoqI1ZuW38GihHAamlRD4d7UEyUEVEkTMSwR+bZ9k6auGCEku0/FqDVl03dFzD6qM0CehohmggMpQcI92TxlMdrv0rJULEuh1ZlE9LlpqdaIVZorOM+KQozmlOxNhQjHQEZQhOhBRL+QSqqpUAihWUUqRhDJNBUJ4S+yWRjyqjbeMaEnEkIw4wtCdE9EBlLxuMYRCCE4t89FnQ2beK3xGxxC1goD/6VQ9QN4DGNbQRf1JexhvWk1IbCHIa7QpAWxIIxe+tPKEEItpKmo3y1gF7HS8ME9mwjRGnCE0PCrhhhA25lCC9pTGBl+m5UxhPATfK6O+J9FmxWPpyv5n1tW6kM5T5EnlMEnBO0UmWhfnDqiMYReZlJR6mlOqH14z81RQKsKnspTqXwgpf3yGy+CcBtSXKHL/Mme9vsfPEKIL3uqypt9V4QQ4HyNqdIvabJqGnxmE4L3ekznJOImiMEXJmEjjAIR2b1lhJ3fxyzExlzCVENipOFlhF8ZhKDfTFQtiSCmvanR/UInbFKVyXRK+U8Qbdb99y0VEMTHwHWFF9RkIKV96nZpTc1Vo8poIfyZEdca7U8q4fhB9lG31e2ASNOY8I/SRQQ+t+DqEkGMe9Pgc7f7mSQcfwL/6OUIRYwJv3a7X0nAhjk9KQTRjVuabrezUgoQRYx6U6cb6TccsMkpmqpA9CM77OIXUQVApAt341La7eyrlKKpMtPwtM8xYdF8N+ZNX6ns/zH9LwlhJ+tkHmQf7Ol0N0j68HknAeykpt/MXpSlpREhBn+mIez8vRrvjffgbgm30tAPtCC9hp39/f33V3817MFbrfDdINgkaUR4oFSGZrqN3XB/Qyj7MLvRP0UIr2WfZTcK/80IX8g+yq6Ux1DRELZaB5tKuq9CM0rVdUfpOhMpVP0atlr7aQgVJjxICR9ln2N3eqE84WMCqKrfx7pWnjBMAFUmbB0khMoafuubIVTYDiO7iEOoPOELpQkflSe8PvgGCF88EzZbCaHCjXdMGIXwWmXHjwkflSZsPUaEj0oTtsLra8UJI4XKEz7rWc/6xvQfB0dYePp+cmsAAAAASUVORK5CYII=;" parent="1" vertex="1">
                    <mxGeometry x="640" y="82.5" width="45" height="45" as="geometry"/>
                </mxCell>
                <mxCell id="-EIdFgMRcUlDATralc_O-56" style="edgeStyle=none;rounded=0;orthogonalLoop=1;jettySize=auto;html=1;exitX=0;exitY=0.75;exitDx=0;exitDy=0;fontSize=13;fontColor=#B3B3B3;endArrow=none;endFill=0;strokeColor=#FF3399;strokeWidth=2;entryX=1;entryY=0.5;entryDx=0;entryDy=0;" parent="1" source="-EIdFgMRcUlDATralc_O-29" target="-EIdFgMRcUlDATralc_O-54" edge="1">
                    <mxGeometry relative="1" as="geometry">
                        <mxPoint x="260" y="230" as="targetPoint"/>
                    </mxGeometry>
                </mxCell>
                <mxCell id="-EIdFgMRcUlDATralc_O-42" value="" style="shape=image;verticalLabelPosition=bottom;labelBackgroundColor=default;verticalAlign=top;aspect=fixed;imageAspect=0;image=https://cdn2.vectorstock.com/i/1000x1000/97/46/bug-icon-vector-21679746.jpg;clipPath=inset(12.67% 17.27% 20% 13.31%);imageBackground=default;" parent="1" vertex="1">
                    <mxGeometry x="395" y="85" width="38.22" height="40" as="geometry"/>
                </mxCell>
                <mxCell id="-EIdFgMRcUlDATralc_O-45" value="&lt;font color=&quot;#ffffff&quot;&gt;&lt;b&gt;&lt;span style=&quot;font-family: &amp;#34;helvetica&amp;#34; ; font-size: 10px ; font-style: normal ; letter-spacing: normal ; text-align: center ; text-indent: 0px ; text-transform: none ; word-spacing: 0px ; display: inline ; float: none&quot;&gt;BUG Application&lt;/span&gt;&lt;br style=&quot;font-family: &amp;#34;helvetica&amp;#34; ; font-size: 10px ; font-style: normal ; letter-spacing: normal ; text-align: center ; text-indent: 0px ; text-transform: none ; word-spacing: 0px&quot;&gt;&lt;/b&gt;&lt;span style=&quot;font-family: &amp;#34;helvetica&amp;#34; ; font-size: 10px ; font-style: normal ; font-weight: 400 ; letter-spacing: normal ; text-align: center ; text-indent: 0px ; text-transform: none ; word-spacing: 0px ; display: inline ; float: none&quot;&gt;bug/app:latest&lt;/span&gt;&lt;/font&gt;" style="text;whiteSpace=wrap;html=1;fontSize=10;fontColor=#000000;" parent="1" vertex="1">
                    <mxGeometry x="440" y="87" width="100" height="40" as="geometry"/>
                </mxCell>
                <mxCell id="-EIdFgMRcUlDATralc_O-48" style="edgeStyle=none;rounded=0;orthogonalLoop=1;jettySize=auto;html=1;fontSize=13;fontColor=#000000;endArrow=none;endFill=0;strokeColor=#FF3399;strokeWidth=2;" parent="1" source="-EIdFgMRcUlDATralc_O-47" target="-EIdFgMRcUlDATralc_O-29" edge="1">
                    <mxGeometry relative="1" as="geometry"/>
                </mxCell>
                <mxCell id="-EIdFgMRcUlDATralc_O-47" value="&lt;font color=&quot;#cc297a&quot;&gt;&lt;font style=&quot;font-size: 13px&quot;&gt;&lt;b&gt;Main Docker Containers&lt;/b&gt;&lt;br&gt;&lt;/font&gt;&lt;b&gt;&lt;br&gt;MongoDB &lt;/b&gt;- BUG database for storing statistics, traffic data, etc&lt;br&gt;&lt;b&gt;&lt;br&gt;Watchtower -&lt;/b&gt; Checks for new version of the main BUG application and retrieves them&lt;br&gt;&lt;br&gt;&lt;b&gt;BUG - &lt;/b&gt;Main frontend for application&lt;/font&gt;" style="text;html=1;strokeColor=#FF3399;fillColor=#FFF2F9;align=left;verticalAlign=middle;whiteSpace=wrap;rounded=0;fontSize=10;fontColor=#000000;opacity=80;strokeWidth=2;" parent="1" vertex="1">
                    <mxGeometry x="50" y="30" width="210" height="117.73" as="geometry"/>
                </mxCell>
                <mxCell id="-EIdFgMRcUlDATralc_O-49" style="edgeStyle=none;rounded=0;orthogonalLoop=1;jettySize=auto;html=1;fontSize=13;fontColor=#000000;endArrow=none;endFill=0;strokeColor=#FF3399;strokeWidth=2;exitX=1;exitY=0.5;exitDx=0;exitDy=0;entryX=0;entryY=0.75;entryDx=0;entryDy=0;" parent="1" source="-EIdFgMRcUlDATralc_O-50" target="-EIdFgMRcUlDATralc_O-33" edge="1">
                    <mxGeometry relative="1" as="geometry">
                        <mxPoint x="380" y="312.59340909090906" as="targetPoint"/>
                    </mxGeometry>
                </mxCell>
                <mxCell id="-EIdFgMRcUlDATralc_O-53" style="edgeStyle=none;rounded=0;orthogonalLoop=1;jettySize=auto;html=1;entryX=0;entryY=0.75;entryDx=0;entryDy=0;fontSize=13;fontColor=#B3B3B3;endArrow=none;endFill=0;strokeColor=#FF3399;strokeWidth=2;exitX=1;exitY=0.5;exitDx=0;exitDy=0;" parent="1" source="-EIdFgMRcUlDATralc_O-50" target="-EIdFgMRcUlDATralc_O-32" edge="1">
                    <mxGeometry relative="1" as="geometry"/>
                </mxCell>
                <mxCell id="-EIdFgMRcUlDATralc_O-50" value="&lt;font color=&quot;#cc297a&quot;&gt;&lt;font style=&quot;font-size: 13px&quot;&gt;&lt;b&gt;Panel Containers&lt;/b&gt;&lt;br&gt;&lt;/font&gt;&lt;br&gt;The creation of a new panel results in a new docker container being created to poll the device, cache the results&amp;nbsp;in the&amp;nbsp;database and control the device&lt;/font&gt;" style="text;html=1;strokeColor=#FF3399;fillColor=#FFF2F9;align=left;verticalAlign=middle;whiteSpace=wrap;rounded=0;fontSize=10;fontColor=#000000;opacity=80;strokeWidth=2;" parent="1" vertex="1">
                    <mxGeometry x="50" y="332" width="210" height="90" as="geometry"/>
                </mxCell>
                <mxCell id="-EIdFgMRcUlDATralc_O-55" style="edgeStyle=none;rounded=0;orthogonalLoop=1;jettySize=auto;html=1;entryX=0;entryY=0.25;entryDx=0;entryDy=0;fontSize=13;fontColor=#B3B3B3;endArrow=none;endFill=0;strokeColor=#FF3399;strokeWidth=2;exitX=1;exitY=0.5;exitDx=0;exitDy=0;" parent="1" source="-EIdFgMRcUlDATralc_O-54" target="-EIdFgMRcUlDATralc_O-32" edge="1">
                    <mxGeometry relative="1" as="geometry"/>
                </mxCell>
                <mxCell id="-EIdFgMRcUlDATralc_O-54" value="&lt;font color=&quot;#cc297a&quot;&gt;&lt;span style=&quot;font-weight: bold ; font-size: 13px&quot;&gt;Communication&lt;/span&gt;&lt;br&gt;&lt;br&gt;Communication&amp;nbsp;between the panels and the database is via HTTP (Port 27017),&amp;nbsp;&lt;br&gt;&lt;br&gt;Communication between the panels and the core BUG application is also via HTTP using an API based on Express.js&lt;/font&gt;" style="text;html=1;strokeColor=#FF3399;fillColor=#FFF2F9;align=left;verticalAlign=middle;whiteSpace=wrap;rounded=0;fontSize=10;fontColor=#000000;opacity=80;strokeWidth=2;" parent="1" vertex="1">
                    <mxGeometry x="50" y="180" width="210" height="110" as="geometry"/>
                </mxCell>
                <mxCell id="-EIdFgMRcUlDATralc_O-58" style="edgeStyle=none;rounded=0;orthogonalLoop=1;jettySize=auto;html=1;entryX=0;entryY=0.5;entryDx=0;entryDy=0;entryPerimeter=0;fontSize=13;fontColor=#B3B3B3;endArrow=none;endFill=0;strokeColor=#FF3399;strokeWidth=2;" parent="1" source="-EIdFgMRcUlDATralc_O-57" target="-EIdFgMRcUlDATralc_O-4" edge="1">
                    <mxGeometry relative="1" as="geometry"/>
                </mxCell>
                <mxCell id="-EIdFgMRcUlDATralc_O-57" value="&lt;font color=&quot;#cc297a&quot;&gt;&lt;span style=&quot;font-size: 13px&quot;&gt;&lt;b&gt;User Access&lt;br&gt;&lt;/b&gt;&lt;/span&gt;&lt;br&gt;End users can access BUG via any popular web browser using the IP address of the host machine&lt;/font&gt;" style="text;html=1;strokeColor=#FF3399;fillColor=#FFF2F9;align=left;verticalAlign=middle;whiteSpace=wrap;rounded=0;fontSize=10;fontColor=#000000;opacity=80;strokeWidth=2;" parent="1" vertex="1">
                    <mxGeometry x="56" y="623" width="210" height="82.5" as="geometry"/>
                </mxCell>
                <mxCell id="-EIdFgMRcUlDATralc_O-33" value="&lt;font&gt;&lt;b&gt;kuag6idvh9vvd5x&lt;/b&gt;&lt;br&gt;ciscosg:latest&lt;/font&gt;" style="rounded=0;whiteSpace=wrap;html=1;fontSize=10;fontColor=#FFFFFF;strokeColor=#666666;strokeWidth=3;fillColor=#B3B3B3;gradientColor=none;opacity=70;" parent="1" vertex="1">
                    <mxGeometry x="380" y="250" width="210" height="70" as="geometry"/>
                </mxCell>
            </root>
        </mxGraphModel>
    </diagram>
</mxfile>